<svg xmlns="http://www.w3.org/2000/svg" viewBox="0 0 941.76 375.03"><defs><style>.cls-1{fill:#fff;}.cls-2{fill:none;}</style></defs><title>Asset 1logo_white</title><g id="Layer_2" data-name="Layer 2"><g id="Layer_1-2" data-name="Layer 1"><path class="cls-1" d="M903.44,325.35h5.95a12.11,12.11,0,0,1,2.13.13,4.17,4.17,0,0,1,1.22.41,3.64,3.64,0,0,1,1.48,1.48,4.73,4.73,0,0,1,.5,2.23,4.09,4.09,0,0,1-.53,2.12,3.64,3.64,0,0,1-1.58,1.38,2.1,2.1,0,0,1,1.27.84,4.51,4.51,0,0,1,.48,2l.17,2.53a4.15,4.15,0,0,0,.22,1.21,1.06,1.06,0,0,0,.48.57v.43h-2.4a5.3,5.3,0,0,1-.41-2.05v-.07l-.12-2a2.85,2.85,0,0,0-.66-2,5.06,5.06,0,0,0-2.76-.46h-3.37v6.57h-2.07Zm2,1.8v5.2h3.56a4.48,4.48,0,0,0,2.72-.63,2.48,2.48,0,0,0,.8-2.08,2.27,2.27,0,0,0-.75-1.93,4.94,4.94,0,0,0-2.77-.56Z"/><path class="cls-1" d="M909,347.18A14.16,14.16,0,1,1,923.19,333,14.17,14.17,0,0,1,909,347.18Zm0-26.32A12.16,12.16,0,1,0,921.19,333,12.17,12.17,0,0,0,909,320.86Z"/><path class="cls-1" d="M422.39,294.62c-.57-.08-.9.46-1.15.78-3.82,4.8-27.57,36.4-58.55,41.51-16.48,3.06-33.52,2.41-49.82-3.14-22.47-7.66-39.51-21.28-45.61-45.07-8.71-34,3.58-60.58,36.26-74.26,16.82-7,34.62-10,52.53-12.66,14.9-2.22,29.9-4.42,44.44-8.2,16.5-4.28,22.56-16.5,20.8-31.85-1.34-11.64-7.73-18.48-18.06-23.06-19.69-8.75-37.18-9.93-57.43-1.74-13.66,5.52-20.39,14.51-23.93,28.5,0,0-41.45-.59-41.31-1.27,7.46-35.82,36.54-62.06,73.72-65.29,18.29-1.58,36.55-1.27,54.26,4.12,27.94,8.52,48,26.4,53.77,56,2.12,10.87,1.93,104.53,2.25,140.21a255.92,255.92,0,0,0,4.7,32.1l-44.88-.19c0-8.18-.67-30.23-1.06-35.07,0-.5-.14-1.25-.81-1.38Zm-1.21-93.46c-2.52,3.44-6.81,10.13-16.45,15.15-14,8.12-29.76,11-45.3,14.4-11.36,2.52-22.73,5.07-33.89,8.29a33.16,33.16,0,0,0-17.4,12.41c-11.55,15.54-4.8,36.18,13.05,46.3,17.1,9.7,34.39,11.52,52.58,5.51,23.37-7.73,40.15-25.73,46.39-52.79,3.69-16,3.87-47.61,3.24-49.07C423,200.52,422.07,200,421.18,201.16Z"/><path class="cls-1" d="M19.09,332.29V21.14H144.57q48.38,0,72.56,19T241.32,97q0,24.28-11.2,41.3t-33.38,26.08q28.09,5.28,43.73,25t15.63,50q0,42.68-28.3,67.81t-76.89,25.13ZM61.34,151.9h74.15q32.73,0,48.16-11.83t15.42-37q0-23.65-14.79-35.06T138.87,56.63H61.34Zm0,142.8H147.1q32.33,0,49-14.26t16.69-41.51q0-27-17-39.71t-53.54-12.68H61.34Z"/><path class="cls-1" d="M489.15,258.79h36.54q2.12,23,16.59,34.85t41.08,11.83q24.51,0,38.66-9.61t14.15-26.3q0-12.46-7.08-19.12t-27.56-11.51l-42.46-11q-35.91-8.66-50-22.91t-14.05-40.67q0-30,22.71-47.63T580,99.09q40.35,0,64.22,18.8t23.87,50.49v.84h-37q-1.26-18-14.68-27.78T580,131.62q-23,0-35,8t-11.93,23.44q0,11,7.5,17.22t28,10.88l36.76,8.66q39.28,9.3,54.08,23.76t14.78,41.3q0,35.28-24.82,54.82T580,339.27q-43.51,0-66.86-20.71T489.15,258.79Z"/><path class="cls-1" d="M853.64,259.21h37.6q-6.12,37.38-32.53,58.93t-66.54,21.55q-47.1,0-74.35-31.69t-27.25-86.39q0-57.88,27-90.41t74.56-32.53q48.8,0,75.52,30t26.72,84.71q0,7-.1,10.35c-.08,2.25-.25,4.44-.53,6.55H730.49q.64,35.7,17.75,55.24t47.52,19.54q23.24,0,38.34-11.94T853.64,259.21ZM730.28,198.58H854.49q-.21-31.68-16.06-48.9t-45-17.21q-28.1,0-44.25,16.9T730.28,198.58Z"/><rect class="cls-2" width="941.76" height="375.03"/></g></g></svg>